<!-- public/logo.svg -->
<svg xmlns="http://www.w3.org/2000/svg" viewBox="0 0 120 120" width="600" height="600">
  <defs></defs>
  <rect width="120" height="120" rx="18" fill="#F5F5DC"></rect>
  <g transform="translate(22,18)">
    <path d="M38 0c-10 0-18 8-18 18 0 6 4 12 9 15v8h18v-8c5-3 9-9 9-15 0-10-8-18-18-18z" fill="#2E4E3F"></path>
    <path d="M36 10c0-3 2-5 5-5s5 2 5 5-2 5-5 5-5-2-5-5z" fill="#F5F5DC"></path>
    <path d="M36 26c-6 0-10 6-10 10h20c0-4-4-10-10-10z" fill="#A3B18A"></path>
    <rect x="33" y="6" width="2" height="18" fill="#ffffff" rx="1" transform="translate(0,0)"></rect>
    <rect x="37" y="6" width="2" height="18" fill="#ffffff" rx="1" transform="translate(0,0)"></rect>
    <rect x="41" y="6" width="2" height="18" fill="#ffffff" rx="1" transform="translate(0,0)"></rect>
  </g>
</svg>
